M48
;Layer_Color=9474304
;FILE_FORMAT=2:5
INCH,LZ
;TYPE=PLATED
T1F00S00C0.01400
T2F00S00C0.01500
T3F00S00C0.02500
T4F00S00C0.03543
T5F00S00C0.03937
T6F00S00C0.04685
T7F00S00C0.04921
;TYPE=NON_PLATED
T8F00S00C0.07795
%
T01
X0168Y0032559
X0205Y0008495
X025Y0054768
X0269362
X0256Y0136
X0245Y0132176
X0241Y0136
X0230862Y0132176
X0202Y0136
Y0143
X0201497Y0169188
X0221Y0169402
X0223Y0189
X024019
X0248Y016274
X0156362Y0206
X0155086Y0216
X011Y016
Y0137
X0034362Y0134611
X0017462
X0002Y012
X0037423
X0178Y0259595
T02
X007Y0009395
X0105062Y-0003205
X0038962Y0066995
X0029257Y0058395
X0022962Y0077
X0155062Y0054395
X0170662Y0062395
X0187Y0042524
X0205Y0048
X0219924Y0015629
X0214882Y0005004
X0195062Y0089595
X0310279Y0030195
X0226562Y0105595
X0222702Y0202577
X0217162Y0198495
X0155086Y0234586
X0145762Y0233295
X0151Y024789
X0118Y0224295
X0117315Y0202695
X0138262Y0161595
X0135562Y0113395
X0082662Y0123495
X0055369Y011219
X0027462Y0116197
X0017462Y0155678
X0027231Y0168926
X0015Y0189895
X0021Y0224295
X0039862
X0063362Y0170295
X0058262Y0149095
X-0034538Y0100871
X0173086Y026552
X0187962Y0259595
X0196362Y0257595
X0199Y0267425
X0190862Y0249472
T03
X007Y-001
X008
X009
X01
X011
X012
X013
X014
X015
Y0016
X014
X013
X012
X011
X01
Y008
X009
X008
X007
X011
X012
X013
X014
X015
X016
X017
X018
X019
X02
X021
X022
X023
X024
X025
Y-001
X024
X023
X022
X021
X02
X019
X018
X017
X016
Y0016
X017
X018
X019
X02
X021
Y0096
X02
X019
X018
X017
X016
X022
X023
X024
X025
X015
X014
X013
X012
X011
X01
T04
X0035Y-001
Y0
Y001
Y002
Y003
Y004
X0185Y0115
X0195
X0205
X0215
X0075Y0185
X0065
X0055
X0045
X0035
X0025
T05
X0225315Y0260247
X0245
T06
X0265Y016274
X0116102
T07
X-0029345Y0093871
Y0108871
Y0123871
Y0138871
Y0153871
Y0168871
Y0183871
Y0198871
X0022Y0265841
X0037
X0052
X0067
X0082
X0097
X0112
X0127
X0268Y0267717
X0283
T08
X0116102Y019463
M30
