G04*
G04 #@! TF.GenerationSoftware,Altium Limited,Altium Designer,19.1.8 (144)*
G04*
G04 Layer_Color=8388736*
%FSLAX25Y25*%
%MOIN*%
G70*
G01*
G75*
%ADD16R,0.05918X0.06706*%
G04:AMPARAMS|DCode=17|XSize=55.24mil|YSize=23.75mil|CornerRadius=7.94mil|HoleSize=0mil|Usage=FLASHONLY|Rotation=0.000|XOffset=0mil|YOffset=0mil|HoleType=Round|Shape=RoundedRectangle|*
%AMROUNDEDRECTD17*
21,1,0.05524,0.00787,0,0,0.0*
21,1,0.03937,0.02375,0,0,0.0*
1,1,0.01587,0.01968,-0.00394*
1,1,0.01587,-0.01968,-0.00394*
1,1,0.01587,-0.01968,0.00394*
1,1,0.01587,0.01968,0.00394*
%
%ADD17ROUNDEDRECTD17*%
%ADD18R,0.03556X0.02178*%
%ADD19R,0.09461X0.13792*%
%ADD20R,0.09461X0.04737*%
%ADD21R,0.06706X0.05918*%
%ADD22C,0.08083*%
%ADD23O,0.05800X0.10800*%
%ADD24R,0.05800X0.10800*%
%ADD25R,0.06706X0.06706*%
%ADD26C,0.06706*%
%ADD27R,0.06706X0.06706*%
%ADD28C,0.10642*%
%ADD29C,0.14567*%
%ADD30C,0.07828*%
%ADD31C,0.04698*%
%ADD32C,0.03800*%
D16*
X302799Y38000D02*
D03*
X310279D02*
D03*
Y48000D02*
D03*
X302799D02*
D03*
X286260Y38000D02*
D03*
X293740D02*
D03*
X-16260Y57000D02*
D03*
X-23740D02*
D03*
X-3468D02*
D03*
X4012D02*
D03*
X-3647Y67000D02*
D03*
X3834D02*
D03*
X-23740D02*
D03*
X-16260D02*
D03*
X-23740Y77000D02*
D03*
X-16260D02*
D03*
X286260Y48000D02*
D03*
X293740D02*
D03*
X-3468Y77000D02*
D03*
X4012D02*
D03*
D17*
X191517Y273724D02*
D03*
Y270575D02*
D03*
Y267425D02*
D03*
Y264276D02*
D03*
X179706D02*
D03*
Y267425D02*
D03*
Y270575D02*
D03*
Y273724D02*
D03*
D18*
X156429Y273839D02*
D03*
Y271280D02*
D03*
Y268720D02*
D03*
Y266161D02*
D03*
X147571D02*
D03*
Y268720D02*
D03*
Y271280D02*
D03*
Y273839D02*
D03*
D19*
X139378Y49000D02*
D03*
D20*
X163000Y58055D02*
D03*
Y49000D02*
D03*
Y39945D02*
D03*
D21*
X178000Y57480D02*
D03*
Y50000D02*
D03*
X187000D02*
D03*
Y57480D02*
D03*
X167000Y265520D02*
D03*
Y273000D02*
D03*
X206362Y272091D02*
D03*
Y264611D02*
D03*
D22*
X283000Y267717D02*
D03*
X268000D02*
D03*
X52000Y265841D02*
D03*
X37000D02*
D03*
X22000D02*
D03*
X112000D02*
D03*
X97000D02*
D03*
X82000D02*
D03*
X67000D02*
D03*
X127000D02*
D03*
X-29345Y93871D02*
D03*
Y108871D02*
D03*
Y123871D02*
D03*
Y138871D02*
D03*
Y168871D02*
D03*
Y198871D02*
D03*
Y183871D02*
D03*
Y153871D02*
D03*
D23*
X100000Y16000D02*
D03*
X110000D02*
D03*
X120000D02*
D03*
X130000D02*
D03*
X140000D02*
D03*
X150000D02*
D03*
X160000D02*
D03*
X170000D02*
D03*
X180000D02*
D03*
X190000D02*
D03*
X200000D02*
D03*
X210000D02*
D03*
X100000Y96000D02*
D03*
X110000D02*
D03*
X120000D02*
D03*
X130000D02*
D03*
X140000D02*
D03*
X150000D02*
D03*
X160000D02*
D03*
X170000D02*
D03*
X180000D02*
D03*
X190000D02*
D03*
X200000D02*
D03*
X210000D02*
D03*
X220000D02*
D03*
X230000D02*
D03*
X240000D02*
D03*
X80000Y-10000D02*
D03*
X90000D02*
D03*
X100000D02*
D03*
X110000D02*
D03*
X120000D02*
D03*
X130000D02*
D03*
X140000D02*
D03*
X150000D02*
D03*
X160000D02*
D03*
X170000D02*
D03*
X180000D02*
D03*
X190000D02*
D03*
X200000D02*
D03*
X210000D02*
D03*
X220000D02*
D03*
X230000D02*
D03*
X240000D02*
D03*
X250000D02*
D03*
X70000Y80000D02*
D03*
X80000D02*
D03*
X90000D02*
D03*
X100000D02*
D03*
X110000D02*
D03*
X120000D02*
D03*
X130000D02*
D03*
X140000D02*
D03*
X150000D02*
D03*
X160000D02*
D03*
X170000D02*
D03*
X180000D02*
D03*
X190000D02*
D03*
X200000D02*
D03*
X210000D02*
D03*
X220000D02*
D03*
X230000D02*
D03*
X240000D02*
D03*
X250000D02*
D03*
D24*
Y96000D02*
D03*
X70000Y-10000D02*
D03*
D25*
X35000D02*
D03*
D26*
Y0D02*
D03*
Y10000D02*
D03*
Y20000D02*
D03*
Y30000D02*
D03*
Y40000D02*
D03*
X195000Y115000D02*
D03*
X205000D02*
D03*
X215000D02*
D03*
X75000Y185000D02*
D03*
X65000D02*
D03*
X55000D02*
D03*
X45000D02*
D03*
X35000D02*
D03*
D27*
X185000Y115000D02*
D03*
X25000Y185000D02*
D03*
D28*
X245000Y260247D02*
D03*
X225315D02*
D03*
D29*
X0Y245000D02*
D03*
X285000Y20000D02*
D03*
X0D02*
D03*
D30*
X116102Y162740D02*
D03*
X265000D02*
D03*
D31*
X116102Y194630D02*
D03*
D32*
X55369Y112190D02*
D03*
X27462Y116197D02*
D03*
X201497Y169188D02*
D03*
X155086Y234586D02*
D03*
X15000Y189895D02*
D03*
X240190Y189000D02*
D03*
X190862Y249472D02*
D03*
X230862Y132176D02*
D03*
X245000D02*
D03*
X110000Y137000D02*
D03*
Y160000D02*
D03*
X27231Y168926D02*
D03*
X17462Y134611D02*
D03*
X34362D02*
D03*
X2000Y120000D02*
D03*
X37423D02*
D03*
X241000Y136000D02*
D03*
X118000Y224295D02*
D03*
X214882Y5004D02*
D03*
X205000Y8495D02*
D03*
X219924Y15629D02*
D03*
X105062Y-3205D02*
D03*
X205000Y48000D02*
D03*
X269362Y54768D02*
D03*
X250000D02*
D03*
X155086Y216000D02*
D03*
X156362Y206000D02*
D03*
X199000Y267425D02*
D03*
X117315Y202695D02*
D03*
X151000Y247890D02*
D03*
X178000Y259595D02*
D03*
X187962D02*
D03*
X222702Y202577D02*
D03*
X310279Y30195D02*
D03*
X187000Y42524D02*
D03*
X196362Y257595D02*
D03*
X173086Y265520D02*
D03*
X17462Y155678D02*
D03*
X170662Y62395D02*
D03*
X155062Y54395D02*
D03*
X138262Y161595D02*
D03*
X217162Y198495D02*
D03*
X135562Y113395D02*
D03*
X145762Y233295D02*
D03*
X70000Y9395D02*
D03*
X-34538Y100871D02*
D03*
X58262Y149095D02*
D03*
X226562Y105595D02*
D03*
X22962Y77000D02*
D03*
X82662Y123495D02*
D03*
X63362Y170295D02*
D03*
X195062Y89595D02*
D03*
X38962Y66995D02*
D03*
X29257Y58395D02*
D03*
X39862Y224295D02*
D03*
X21000D02*
D03*
X168000Y32559D02*
D03*
X248000Y162740D02*
D03*
X221000Y169402D02*
D03*
X202000Y136000D02*
D03*
Y143000D02*
D03*
X223000Y189000D02*
D03*
X256000Y136000D02*
D03*
M02*
