G04*
G04 #@! TF.GenerationSoftware,Altium Limited,Altium Designer,19.1.8 (144)*
G04*
G04 Layer_Physical_Order=2*
G04 Layer_Color=16711680*
%FSLAX25Y25*%
%MOIN*%
G70*
G01*
G75*
%ADD11C,0.01000*%
%ADD14C,0.00500*%
%ADD15C,0.02000*%
%ADD33R,0.05118X0.05906*%
%ADD38R,0.05906X0.05118*%
%ADD39C,0.00800*%
%ADD40C,0.01500*%
%ADD44C,0.07284*%
%ADD45O,0.05000X0.10000*%
%ADD46R,0.05000X0.10000*%
%ADD47R,0.05906X0.05906*%
%ADD48C,0.05906*%
%ADD49R,0.05906X0.05906*%
%ADD50C,0.09843*%
%ADD51C,0.07028*%
%ADD52C,0.03898*%
%ADD53C,0.03000*%
%ADD54R,0.10236X0.04331*%
%ADD55R,0.04331X0.02559*%
%ADD56R,0.02165X0.05709*%
%ADD57R,0.02165X0.05709*%
%ADD58R,0.02559X0.03543*%
%ADD59O,0.01772X0.04921*%
%ADD60R,0.07874X0.04921*%
%ADD61R,0.03740X0.03543*%
%ADD62R,0.03740X0.03543*%
%ADD63R,0.03543X0.02559*%
%ADD64R,0.05900X0.13300*%
%ADD65O,0.02165X0.06693*%
%ADD66R,0.05118X0.02362*%
%ADD67R,0.05709X0.02165*%
%ADD68R,0.05709X0.02165*%
%ADD69R,0.06693X0.04331*%
%ADD70O,0.02362X0.08071*%
%ADD71R,0.07874X0.24803*%
%ADD72R,0.04803X0.03583*%
%ADD73R,0.03583X0.04803*%
%ADD74R,0.04331X0.06693*%
%ADD75C,0.01444*%
%ADD76C,0.01181*%
%ADD77C,0.01443*%
D11*
X163000Y247890D02*
Y251736D01*
X7462Y126433D02*
X12462D01*
D14*
X7000Y245000D02*
G03*
X7000Y245000I-7000J0D01*
G01*
X292000Y20000D02*
G03*
X292000Y20000I-7000J0D01*
G01*
X7000Y20000D02*
G03*
X7000Y20000I-7000J0D01*
G01*
D15*
X224000Y114500D02*
X230768D01*
X202022Y156361D02*
X213995D01*
X214362Y124138D02*
X224000Y114500D01*
X230862Y178740D02*
Y182118D01*
X221000D02*
X230862D01*
X236151Y233331D02*
X280290D01*
X226631Y242850D02*
X236151Y233331D01*
X220000Y246984D02*
X222227Y249211D01*
X224604D01*
X224865Y249472D01*
X226877D01*
X237651Y260247D02*
X245000D01*
X226877Y249472D02*
X237651Y260247D01*
X220000Y242850D02*
X226631D01*
X218000D02*
X220000D01*
Y244112D02*
Y246984D01*
X248221Y244000D02*
X253638Y249417D01*
X240000Y244000D02*
X248221D01*
X255960Y274156D02*
X276560D01*
X260705Y228000D02*
X278524D01*
X276560Y274156D02*
X283000Y267717D01*
X253725Y271922D02*
X255960Y274156D01*
X253638Y271922D02*
X253725D01*
X253638Y249417D02*
Y271922D01*
X248000Y215295D02*
X260705Y228000D01*
X248000Y30195D02*
X249762Y31957D01*
Y47995D01*
X240190Y189000D02*
Y203810D01*
X240000Y204000D02*
X240190Y203810D01*
X214362Y124138D02*
Y138695D01*
X249762Y47995D02*
X265000Y63234D01*
Y127000D01*
X256000Y136000D02*
X265000Y127000D01*
X230862Y127001D02*
Y132176D01*
X230763Y124810D02*
Y127776D01*
X241000Y136000D02*
X256000D01*
X245000Y124810D02*
Y132176D01*
X230763Y114180D02*
X245000D01*
X239232Y167803D02*
Y170028D01*
X202000Y128000D02*
X215000Y115000D01*
X202000Y128000D02*
Y136000D01*
X241000D02*
Y144563D01*
Y157437D02*
Y160972D01*
X239740Y162232D02*
X241000Y160972D01*
X248000Y178378D02*
Y215295D01*
X234000Y157437D02*
X241000D01*
X237320Y47995D02*
X249762D01*
X260000Y244000D02*
Y259717D01*
X268000Y267717D01*
X212000Y182118D02*
X221000D01*
D33*
X107740Y108000D02*
D03*
X100260D02*
D03*
X101740Y277000D02*
D03*
X94260D02*
D03*
X119260D02*
D03*
X126740D02*
D03*
X231000Y15000D02*
D03*
X238480D02*
D03*
X68260Y141000D02*
D03*
X75740D02*
D03*
X158260Y142000D02*
D03*
X165740D02*
D03*
X75740Y152000D02*
D03*
X68260D02*
D03*
X165740Y150563D02*
D03*
X158260D02*
D03*
X26702Y174795D02*
D03*
X19222D02*
D03*
X19321Y108871D02*
D03*
X26802D02*
D03*
X232260Y164895D02*
D03*
X239740D02*
D03*
X161260Y217000D02*
D03*
X168740D02*
D03*
X196740D02*
D03*
X189260D02*
D03*
X116740Y172000D02*
D03*
X109260D02*
D03*
D38*
X183000Y246740D02*
D03*
Y239260D02*
D03*
X45000Y204260D02*
D03*
Y211740D02*
D03*
X31000Y204260D02*
D03*
Y211740D02*
D03*
X21000Y204260D02*
D03*
Y211740D02*
D03*
X58000Y204260D02*
D03*
Y211740D02*
D03*
X92000Y246000D02*
D03*
Y238520D02*
D03*
X28000Y240740D02*
D03*
Y233260D02*
D03*
X88398Y221740D02*
D03*
Y214260D02*
D03*
X97000Y214190D02*
D03*
Y221670D02*
D03*
X138000Y225850D02*
D03*
Y233331D02*
D03*
X120000Y137260D02*
D03*
Y144740D02*
D03*
X125823Y225850D02*
D03*
Y233331D02*
D03*
X138000Y249800D02*
D03*
Y242320D02*
D03*
X125823Y242260D02*
D03*
Y249740D02*
D03*
X53000Y148740D02*
D03*
Y141260D02*
D03*
X221000Y182118D02*
D03*
Y174638D02*
D03*
X212000D02*
D03*
Y182118D02*
D03*
X202022Y156361D02*
D03*
Y148881D02*
D03*
X41000Y241740D02*
D03*
Y234260D02*
D03*
X143000Y176740D02*
D03*
Y169260D02*
D03*
X55000Y233260D02*
D03*
Y240740D02*
D03*
D39*
X108483Y155195D02*
X131398D01*
X131862D01*
X130362Y52895D02*
X135000Y48257D01*
Y9495D02*
Y48257D01*
Y9495D02*
X136000Y8495D01*
X168762D01*
X170000Y9734D01*
X179620Y6154D02*
X183762Y10295D01*
X114542Y6154D02*
X179620D01*
X110000Y10695D02*
X114542Y6154D01*
X167862Y27895D02*
X179362D01*
X165062Y30695D02*
X167862Y27895D01*
X165062Y30695D02*
Y44595D01*
X162362Y47795D02*
X176662Y62095D01*
X162362Y28795D02*
Y47795D01*
Y28795D02*
X166762Y24395D01*
X160000Y96000D02*
Y104357D01*
X156357Y108000D02*
X160000Y104357D01*
X107740Y108000D02*
X156357D01*
X170000Y96000D02*
Y104357D01*
X160962Y113395D02*
X170000Y104357D01*
X135562Y113395D02*
X160962D01*
X180000Y96000D02*
Y114725D01*
X171229Y123495D02*
X180000Y114725D01*
X82662Y123495D02*
X171229D01*
X55375Y112195D02*
X107640D01*
X55369Y112190D02*
X55375Y112195D01*
X27462Y116197D02*
Y126433D01*
X89500Y149995D02*
Y155547D01*
X88950Y149445D02*
X89500Y149995D01*
X82612Y149445D02*
X88950D01*
X81862Y150195D02*
X82612Y149445D01*
X81862Y150195D02*
Y174795D01*
X105962Y157717D02*
Y164000D01*
X104166Y165795D02*
X105962Y164000D01*
X89200Y165795D02*
X104166D01*
X102244Y164000D02*
X104262Y161983D01*
X92405Y164000D02*
X102244D01*
X89500Y161095D02*
X92405Y164000D01*
X84500Y161095D02*
X89200Y165795D01*
X130840Y175116D02*
Y178757D01*
X129262Y173538D02*
X130840Y175116D01*
X126901Y173538D02*
X129262D01*
X116102Y162740D02*
X126901Y173538D01*
X130840Y178757D02*
X131398Y179315D01*
X125823Y180743D02*
X127251Y179315D01*
X131398D01*
X125823Y180743D02*
Y191202D01*
X130362Y195740D01*
X142620D02*
Y201380D01*
X123407Y183164D02*
Y196603D01*
X117315Y202695D02*
X123407Y196603D01*
X117315Y202695D02*
X141305D01*
X142620Y201380D01*
X53000Y204260D02*
X58000D01*
X52258Y205002D02*
X53000Y204260D01*
X52258Y205002D02*
Y209844D01*
X50362Y211740D02*
X52258Y209844D01*
X10164Y210552D02*
X11221Y209495D01*
Y208395D02*
Y209495D01*
X3740Y211417D02*
X4605Y210552D01*
X10164D01*
X3740Y211417D02*
Y214606D01*
X-8719Y195111D02*
Y198551D01*
X-9040Y198871D02*
X-8719Y198551D01*
X-29345Y198871D02*
X-9040D01*
X202972Y241950D02*
X204571D01*
X198557Y237535D02*
X202972Y241950D01*
X196260Y237535D02*
X198557D01*
X155086Y234586D02*
X158614D01*
X159063Y234137D01*
Y234110D02*
Y234137D01*
X119260Y250047D02*
Y277000D01*
X115213Y246000D02*
X119260Y250047D01*
X111724Y246000D02*
X115213D01*
X118000Y224295D02*
Y236093D01*
X115573Y238520D02*
X118000Y236093D01*
X111724Y238520D02*
X115573D01*
X15000Y189895D02*
X28079D01*
X30276Y187698D01*
X3740Y199495D02*
X9040Y194195D01*
X45762D01*
X50062Y189895D01*
X206724Y244102D02*
Y256415D01*
X204571Y241950D02*
X206724Y244102D01*
X206262Y256877D02*
X206724Y256415D01*
X203740Y237535D02*
X209454D01*
X211062Y239143D02*
Y269795D01*
X209454Y237535D02*
X211062Y239143D01*
X199000Y264139D02*
X206262Y256877D01*
X199000Y264139D02*
Y267425D01*
X207962Y269795D02*
X211062D01*
X48847Y135710D02*
X65962Y118595D01*
X48847Y135710D02*
Y141610D01*
X45262Y145195D02*
X48847Y141610D01*
X-8719Y166695D02*
Y168695D01*
Y164611D02*
Y166695D01*
Y168695D02*
X17762D01*
X-8895Y168871D02*
X-8719Y168695D01*
X-29345Y168871D02*
X-8895D01*
X116915Y181718D02*
X117315Y182118D01*
X116740Y176740D02*
X116915Y176915D01*
Y181718D01*
X116740Y172000D02*
Y176740D01*
X141305Y202695D02*
X150877D01*
X117315Y182118D02*
X122362D01*
X123407Y183164D01*
X136182Y188260D02*
X139922Y192000D01*
X161263D01*
X162553Y193290D01*
X199600D02*
X204805Y198495D01*
X162553Y193290D02*
X199600D01*
X150777Y202595D02*
X150877Y202695D01*
X150777Y202595D02*
X222683D01*
X11221Y214606D02*
X13689D01*
X15000Y213295D01*
X26802Y88636D02*
Y108871D01*
X17000Y78834D02*
X26802Y88636D01*
X22962Y29295D02*
Y77000D01*
Y29295D02*
X27962Y24295D01*
X17000Y22757D02*
Y78834D01*
Y22757D02*
X24762Y14995D01*
X125823Y260995D02*
X127000Y262172D01*
X125823Y249740D02*
Y260995D01*
X97469Y242895D02*
Y244690D01*
Y242895D02*
X98104Y242260D01*
X102276D01*
X96159Y246000D02*
X97469Y244690D01*
X92000Y246000D02*
X96159D01*
X70296Y210729D02*
X72708Y213142D01*
X70296Y202829D02*
Y210729D01*
X66562Y199095D02*
X70296Y202829D01*
X62506Y210595D02*
X70162D01*
X61362Y211740D02*
X62506Y210595D01*
X58000Y211740D02*
X61362D01*
X35455D02*
X37562Y209633D01*
Y203628D02*
Y209633D01*
Y203628D02*
X42094Y199095D01*
X31000Y211740D02*
X35455D01*
X17762Y168695D02*
X19862Y166595D01*
X19662Y170295D02*
X22462Y167495D01*
X-138Y170295D02*
X19662D01*
X-3738Y173895D02*
X-138Y170295D01*
X262Y138695D02*
X19262D01*
X-8719Y147676D02*
X262Y138695D01*
X-8719Y147676D02*
Y157131D01*
X7440Y140595D02*
X37562D01*
X862Y147174D02*
X7440Y140595D01*
X862Y147174D02*
Y157282D01*
X-2152Y160295D02*
X862Y157282D01*
X-11838Y160295D02*
X-2152D01*
X32100Y72034D02*
X34723Y74657D01*
X100000Y-513D02*
X101108Y595D01*
X100000Y-10000D02*
Y-513D01*
X101108Y595D02*
X217544D01*
X90000Y-10000D02*
Y10695D01*
X161160Y256000D02*
X194766D01*
X159063Y253903D02*
X161160Y256000D01*
X159063Y247890D02*
Y253903D01*
X194766Y256000D02*
X196362Y257595D01*
X75394Y238480D02*
Y240995D01*
X63362D02*
X75394D01*
X61662Y239295D02*
X63362Y240995D01*
X61662Y231695D02*
Y239295D01*
X58962Y228995D02*
X61662Y231695D01*
X15000Y206593D02*
Y213295D01*
Y206593D02*
X17333Y204260D01*
X68260Y142648D02*
X69160Y141748D01*
X68260Y144295D02*
Y152000D01*
Y142648D02*
Y144295D01*
Y141000D02*
Y142648D01*
Y144295D02*
X69160Y145195D01*
X105962Y157717D02*
X108483Y155195D01*
X27231Y168926D02*
X27462Y168695D01*
X27000Y169157D02*
X27231Y168926D01*
X30276Y180724D02*
Y187698D01*
Y180724D02*
X37462Y173538D01*
Y163047D02*
Y173538D01*
X32462Y158462D02*
Y163047D01*
X32000Y158000D02*
X32462Y158462D01*
X21257Y158000D02*
X32000D01*
X19862Y159395D02*
X21257Y158000D01*
X17462Y126433D02*
Y134611D01*
X34746Y121141D02*
Y134580D01*
X34723Y74657D02*
Y121118D01*
X34746Y121141D01*
X-8719Y124295D02*
X-4424Y120000D01*
X2000D01*
X37423Y122248D02*
X37462Y122287D01*
X37423Y120000D02*
Y122248D01*
X37462Y122287D02*
Y126433D01*
X32462Y111057D02*
Y126433D01*
X30276Y108871D02*
X32462Y111057D01*
X26802Y108871D02*
X30276D01*
X170000Y9734D02*
Y16000D01*
X239740Y162232D02*
Y164895D01*
X230137Y153574D02*
X234000Y157437D01*
X230137Y147295D02*
Y153574D01*
X168762Y118595D02*
X175000Y112357D01*
Y92000D02*
Y112357D01*
Y92000D02*
X180000Y87000D01*
Y80000D02*
Y87000D01*
X190000Y73339D02*
Y80000D01*
X188695Y72034D02*
X190000Y73339D01*
X32100Y72034D02*
X188695D01*
X217544Y595D02*
X219924Y2976D01*
X103037Y3000D02*
X192019D01*
X193574Y4555D01*
X103037Y3000D02*
X103095Y3058D01*
X100000Y6154D02*
X103095Y3058D01*
X100000Y6154D02*
Y16000D01*
X21707Y231685D02*
Y240740D01*
X16000Y231685D02*
X21707D01*
X41595Y228995D02*
X58962D01*
X41000Y229591D02*
X41595Y228995D01*
X41000Y229591D02*
Y234260D01*
X35622D02*
X41000D01*
X34362Y235520D02*
X35622Y234260D01*
X34362Y235520D02*
Y239581D01*
X33203Y240740D02*
X34362Y239581D01*
X28000Y240740D02*
X33203D01*
X67126Y230560D02*
Y238480D01*
X60862Y224295D02*
X67126Y230560D01*
X194172Y5004D02*
X214882D01*
X193649Y4480D02*
X194172Y5004D01*
X193574Y4555D02*
X193649Y4480D01*
X219924Y2976D02*
Y15629D01*
X238105Y60000D02*
X240000Y61895D01*
X180466Y60000D02*
X238105D01*
X165062Y44595D02*
X180466Y60000D01*
X155086Y216000D02*
X160260D01*
X161260Y217000D01*
X113066Y206000D02*
X156362D01*
X81862Y174795D02*
X113066Y206000D01*
X199597Y211352D02*
X203740Y215495D01*
X162204Y211352D02*
X199597D01*
X161260Y212295D02*
X162204Y211352D01*
X151000Y247890D02*
X159063D01*
X178000Y259595D02*
X187962D01*
Y268695D02*
X192762Y273495D01*
X187962Y259595D02*
Y268695D01*
X222683Y202595D02*
X222702Y202577D01*
X166762Y24395D02*
X177605D01*
X131398Y155195D02*
Y157895D01*
Y152547D02*
Y155195D01*
X143000Y176740D02*
Y188260D01*
X27462Y163047D02*
Y168695D01*
X27000Y169157D02*
Y174000D01*
X72708Y213142D02*
X76244D01*
X130362Y195740D02*
X133276D01*
X21707Y240740D02*
X28000D01*
X17462Y155678D02*
Y163047D01*
X150000Y16000D02*
Y54734D01*
X157662Y62395D01*
X170662D01*
X100260Y102055D02*
Y108000D01*
X100000Y101795D02*
X100260Y102055D01*
X100000Y96000D02*
Y101795D01*
X160000Y16000D02*
Y49457D01*
X155062Y54395D02*
X160000Y49457D01*
X42094Y199095D02*
X66562D01*
X161260Y212295D02*
Y217000D01*
X192762Y273495D02*
X204262D01*
X207962Y269795D01*
X110000Y10695D02*
Y16000D01*
X183762Y10295D02*
Y23495D01*
X179362Y27895D02*
X183762Y23495D01*
X240000Y61895D02*
Y80000D01*
X203740Y215495D02*
Y237535D01*
X136398Y148295D02*
Y152547D01*
X135398Y147295D02*
X136398Y148295D01*
X130362Y147295D02*
X135398D01*
X125762Y151895D02*
X130362Y147295D01*
X107962Y151895D02*
X125762D01*
X104262Y155595D02*
X107962Y151895D01*
X104262Y155595D02*
Y161983D01*
X89500Y155547D02*
Y161095D01*
X84500Y155547D02*
Y161095D01*
X131398Y157895D02*
X135098Y161595D01*
X138262D01*
X196260Y230876D02*
Y237535D01*
Y230876D02*
X196740Y230395D01*
Y217000D02*
Y230395D01*
X127000Y262172D02*
Y265841D01*
X131922Y249800D02*
X138000D01*
X131862Y249740D02*
X131922Y249800D01*
X125823Y249740D02*
X131862D01*
X19862Y159395D02*
Y166595D01*
X133276Y188260D02*
X136182D01*
X204805Y198495D02*
X217162D01*
X145726Y233331D02*
X145762Y233295D01*
X138000Y233331D02*
X145726D01*
X125823D02*
X138000D01*
X125823D02*
Y242260D01*
X28000Y240740D02*
Y256841D01*
X37000Y265841D01*
X-8719Y195111D02*
X-5638D01*
X-3738Y193211D01*
Y173895D02*
Y193211D01*
X22462Y163047D02*
Y167495D01*
X42462Y126433D02*
Y135695D01*
X37562Y140595D02*
X42462Y135695D01*
X-15538Y163995D02*
X-11838Y160295D01*
X-32287Y163995D02*
X-15538D01*
X-34438Y166147D02*
X-32287Y163995D01*
X-34438Y166147D02*
Y178778D01*
X-29345Y183871D01*
X-25586Y187631D01*
X-8719D01*
X22462Y126433D02*
Y135495D01*
X19262Y138695D02*
X22462Y135495D01*
X-26086Y157131D02*
X-8719D01*
X-29345Y153871D02*
X-26086Y157131D01*
X-25086Y134611D02*
X-8719D01*
X-29345Y138871D02*
X-25086Y134611D01*
X-8719Y124295D02*
Y127131D01*
X-26086D02*
X-8719D01*
X-29345Y123871D02*
X-26086Y127131D01*
X-25086Y104611D02*
X-8719D01*
X-29345Y108871D02*
X-25086Y104611D01*
X-26086Y97131D02*
X-8719D01*
X-29345Y93871D02*
X-26086Y97131D01*
X142725Y188260D02*
X143000D01*
X130000Y16000D02*
Y22000D01*
X127705Y24295D02*
X130000Y22000D01*
X27962Y24295D02*
X127705D01*
X200000Y96000D02*
X210000D01*
X90000Y-10000D02*
X100000D01*
X24762Y14995D02*
X85700D01*
X90000Y10695D01*
X180000Y96000D02*
X190000D01*
X110000Y-10000D02*
X120000D01*
X12462Y151095D02*
Y163047D01*
Y151095D02*
X18362Y145195D01*
X45262D01*
X65962Y118595D02*
X168762D01*
X146398Y133453D02*
Y138695D01*
X149702Y142000D01*
X158260D01*
Y150563D01*
X91200Y145195D02*
X94500Y141895D01*
Y136453D02*
Y141895D01*
X69160Y145195D02*
X91200D01*
X230768Y168787D02*
Y171260D01*
Y168787D02*
X232260Y167295D01*
Y164895D02*
Y167295D01*
X230768Y178740D02*
X230862D01*
X3740Y199495D02*
Y206142D01*
X50062Y183595D02*
Y189895D01*
Y183595D02*
X63362Y170295D01*
X170000Y80000D02*
Y85357D01*
X165562Y89795D02*
X170000Y85357D01*
X54962Y89795D02*
X165562D01*
X50862Y93895D02*
X54962Y89795D01*
X50862Y93895D02*
Y128095D01*
X44562Y134395D02*
X50862Y128095D01*
X44562Y134395D02*
Y139195D01*
X40762Y142995D02*
X44562Y139195D01*
X11962Y142995D02*
X40762D01*
X7462Y147495D02*
X11962Y142995D01*
X7462Y147495D02*
Y163047D01*
X25162Y65095D02*
X32100Y72034D01*
X25162Y55495D02*
Y65095D01*
Y55495D02*
X27762Y52895D01*
X130362D01*
X230000Y80000D02*
Y85957D01*
X226362Y89595D02*
X230000Y85957D01*
X195062Y89595D02*
X226362D01*
X230000Y65734D02*
Y80000D01*
X226362Y62095D02*
X230000Y65734D01*
X176662Y62095D02*
X226362D01*
X177605Y24395D02*
X180000Y22000D01*
Y16000D02*
Y22000D01*
X38962Y66995D02*
X202995D01*
X210000Y74000D01*
Y80000D01*
X220000Y74000D02*
Y80000D01*
X211095Y65095D02*
X220000Y74000D01*
X157462Y65095D02*
X211095D01*
X150762Y58395D02*
X157462Y65095D01*
X29257Y58395D02*
X150762D01*
X107740Y108000D02*
Y112095D01*
X107640Y112195D02*
X107740Y112095D01*
X28000Y221895D02*
Y233260D01*
Y221895D02*
X32000Y217895D01*
X42600D01*
X45000Y215495D01*
Y211740D02*
Y215495D01*
Y211740D02*
X50362D01*
X63063Y205661D02*
X66795D01*
X61662Y204260D02*
X63063Y205661D01*
X58000Y204260D02*
X61662D01*
X189003Y24992D02*
Y33000D01*
Y24992D02*
X190000Y23995D01*
Y16000D02*
Y23995D01*
X231000Y15000D02*
Y20295D01*
X226700Y24595D02*
X231000Y20295D01*
X202595Y24595D02*
X226700D01*
X200000Y22000D02*
X202595Y24595D01*
X200000Y16000D02*
Y22000D01*
X101740Y277000D02*
X119260D01*
X88398Y209095D02*
Y214260D01*
X84964Y205661D02*
X88398Y209095D01*
X76244Y205661D02*
X84964D01*
X92732Y214190D02*
X97000D01*
X92662Y214260D02*
X92732Y214190D01*
X88398Y214260D02*
X92662D01*
X17333Y204260D02*
X21000D01*
X31000D01*
X39862Y224295D02*
X60862D01*
X21000Y211740D02*
Y224295D01*
D40*
X248062Y162802D02*
Y167748D01*
X255492Y135332D02*
X256041Y135368D01*
X237315Y47995D02*
X237320D01*
X97000Y265295D02*
X97273Y265568D01*
X131922Y168685D02*
Y171220D01*
X40998Y241384D02*
X46807Y241354D01*
X19520Y174000D02*
Y182376D01*
X109260Y161095D02*
X112960Y157395D01*
X109262Y136453D02*
X110069Y137260D01*
X19222Y102915D02*
Y108871D01*
X187338Y8157D02*
X205000D01*
X168000Y32559D02*
X176563D01*
X176129Y32395D02*
X181562D01*
X187050Y57145D02*
X242150D01*
X176129Y46225D02*
X187050Y57145D01*
X176129Y33000D02*
Y46225D01*
X94500Y155547D02*
Y160295D01*
X95800Y161595D01*
X100931D02*
X102231Y160295D01*
X95800Y161595D02*
X100931D01*
X143000Y169260D02*
X201425D01*
X201497Y169188D01*
X131922Y168685D02*
X135544D01*
X131398D02*
X131922D01*
Y171220D02*
X134240Y173538D01*
X135562D01*
X135544Y168685D02*
X136119Y169260D01*
X143000D01*
X134262Y184295D02*
X138000Y180557D01*
Y175977D02*
Y180557D01*
X135562Y173538D02*
X138000Y175977D01*
X146398Y155395D02*
X163962D01*
X67126Y244492D02*
Y246039D01*
Y244492D02*
X68673Y242945D01*
X77812D01*
X82362Y238395D01*
X280290Y233331D02*
X281400Y232220D01*
X154963Y229495D02*
X163000D01*
X102276Y246000D02*
X106685D01*
Y230697D02*
Y246000D01*
Y230697D02*
X110894D01*
X102276Y249500D02*
X112000Y259224D01*
X107903Y218961D02*
X112000D01*
X92000Y234863D02*
X107903Y218961D01*
X92000Y234863D02*
Y238520D01*
X84374Y241049D02*
Y246060D01*
X86904Y238520D02*
X92000D01*
X84374Y241049D02*
X86904Y238520D01*
X97000Y265295D02*
Y265841D01*
Y258811D02*
Y265295D01*
X90516Y258811D02*
X97000Y265295D01*
X53484Y258811D02*
X90516D01*
X84374Y246185D02*
X97000Y258811D01*
X52000Y260295D02*
X53484Y258811D01*
X-318Y190879D02*
Y204875D01*
X-4038Y208595D02*
X-318Y204875D01*
X-36638Y160871D02*
X-17971D01*
X-36638Y137595D02*
Y160871D01*
X278524Y228000D02*
X281400Y230876D01*
X8930Y198551D02*
X34944D01*
X36600Y196895D01*
X206362Y209095D02*
X207829Y210563D01*
X94937Y209095D02*
X206362D01*
X85842Y200000D02*
X94937Y209095D01*
X62825Y177315D02*
X70870D01*
X60162Y179978D02*
X62825Y177315D01*
X60162Y179978D02*
Y193551D01*
X74966Y181411D02*
X75000Y181445D01*
X70870Y177315D02*
X74966Y181411D01*
X75000Y185000D01*
X74740Y157295D02*
X74966Y181411D01*
X75000Y181445D02*
Y185000D01*
X248000Y30195D02*
X310279D01*
X241981D02*
X248000D01*
X90819Y230697D02*
X97000Y225069D01*
X82362Y238395D02*
X90819Y230697D01*
X81961D02*
X90819D01*
X237315Y41000D02*
Y46835D01*
X236178Y39863D02*
X237315Y41000D01*
X17178Y100871D02*
X19222Y102915D01*
X245000Y59995D02*
Y114180D01*
X256041Y135368D02*
X256507Y135398D01*
X168910Y269695D02*
X173086Y265520D01*
X145962Y269695D02*
X168910D01*
X238480Y5777D02*
Y15000D01*
X230000Y-2703D02*
X238480Y5777D01*
X230000Y-10000D02*
Y-2703D01*
X144245Y242320D02*
X144662Y242736D01*
X138000Y242320D02*
X144245D01*
X66795Y215531D02*
X81961Y230697D01*
X66795Y213142D02*
Y215531D01*
X97000Y221670D02*
Y225069D01*
X108961Y214295D02*
X144662D01*
X107104Y216153D02*
X108961Y214295D01*
X107104Y216153D02*
Y216241D01*
X101674Y221670D02*
X107104Y216241D01*
X97000Y221670D02*
X101674D01*
X95260Y283000D02*
X207657D01*
X94260Y282000D02*
X95260Y283000D01*
X94260Y277000D02*
Y282000D01*
X-4038Y208595D02*
Y219511D01*
X-36638Y191371D02*
Y195833D01*
Y160871D02*
Y191371D01*
Y201595D02*
X-29638Y208595D01*
X-36638Y195833D02*
Y201595D01*
Y191371D02*
X-17971D01*
X-36638Y137595D02*
X-29914Y130871D01*
X95500Y147495D02*
X99500Y151495D01*
X76540Y147495D02*
X95500D01*
X75740Y148295D02*
X76540Y147495D01*
X60548Y137954D02*
X63854Y134648D01*
X57242Y141260D02*
X60548Y137954D01*
X60862Y138268D01*
Y146495D01*
X58262Y149095D02*
X60862Y146495D01*
X75740Y134648D02*
X82695D01*
X63854D02*
X75740D01*
X53000Y141260D02*
X57242D01*
X142116Y142000D02*
X146398Y146281D01*
X125197Y142000D02*
X142116D01*
X122457Y144740D02*
X125197Y142000D01*
X123807Y133453D02*
X131398D01*
X120000Y137260D02*
X123807Y133453D01*
X22143Y185000D02*
X25000D01*
X5562D02*
X22143D01*
X19520Y182376D02*
X22143Y185000D01*
X-17971Y100871D02*
X17178D01*
X238480Y15000D02*
X246000D01*
X250000Y11000D01*
X202000Y136000D02*
Y143000D01*
X239232Y170028D02*
Y171260D01*
X206724Y174638D02*
X212000D01*
X206362Y175000D02*
X206724Y174638D01*
X206362Y175000D02*
Y189895D01*
X212000Y170976D02*
Y174638D01*
X202022Y160998D02*
X212000Y170976D01*
X202022Y156361D02*
Y160998D01*
X213995Y146129D02*
Y147295D01*
Y145395D02*
Y146129D01*
X214104Y146237D01*
X189661Y39863D02*
X236178D01*
X187000Y42524D02*
X189661Y39863D01*
X-34738Y101071D02*
X-34538Y100871D01*
X-34738Y101071D02*
Y128971D01*
X-318Y190879D02*
X5562Y185000D01*
X-29638Y208595D02*
X-5003D01*
X22000Y256667D02*
Y265841D01*
X16000Y250667D02*
X22000Y256667D01*
X16000Y242315D02*
Y250667D01*
X46807Y241354D02*
X48562Y239581D01*
X48541Y235509D02*
X48562Y239581D01*
X48541Y235509D02*
X50491Y233539D01*
X54362Y233520D01*
X41000Y254841D02*
X52000Y265841D01*
X185762Y9734D02*
X187338Y8157D01*
X185762Y9734D02*
Y28195D01*
X105062Y-3205D02*
X105754Y-2513D01*
X205000Y48000D02*
X226685D01*
Y52295D02*
X229157Y54768D01*
X250000D01*
X242150Y57145D02*
X245000Y59995D01*
X80000Y200000D02*
X85842D01*
X65000Y185000D02*
X80000Y200000D01*
X207829Y283000D02*
X213434Y277395D01*
X222569Y194602D02*
X227162Y199195D01*
X211069Y194602D02*
X222569D01*
X206362Y189895D02*
X211069Y194602D01*
X110894Y230697D02*
X112000Y229591D01*
X22000Y265841D02*
Y271902D01*
X144662Y239797D02*
Y242736D01*
Y255100D01*
Y239797D02*
X154963Y229495D01*
X144662Y255100D02*
X155081Y265520D01*
X173086D01*
X187597Y239260D02*
X192624D01*
X183000D02*
X187597D01*
X189260Y217000D02*
Y237597D01*
X187597Y239260D02*
X189260Y237597D01*
X300600Y219694D02*
Y227000D01*
X298278Y217372D02*
X300600Y219694D01*
X267481Y217372D02*
X298278D01*
X260000Y209891D02*
X267481Y217372D01*
X224604D02*
X227162Y214814D01*
X215584Y217372D02*
X224604D01*
X213262Y219694D02*
X215584Y217372D01*
X213262Y219694D02*
Y277395D01*
X227162Y199195D02*
Y214814D01*
X260000Y204000D02*
Y209891D01*
X190000Y-10000D02*
Y-4001D01*
X188511Y-2513D02*
X190000Y-4001D01*
X105754Y-2513D02*
X188511D01*
X237315Y48000D02*
X237320Y47995D01*
X238480Y46835D01*
X75740Y134648D02*
Y141000D01*
X-32838Y130871D02*
X-29914D01*
X99500Y148295D02*
Y151495D01*
X238480Y15000D02*
Y26695D01*
X241981Y30195D01*
X75360Y246060D02*
X84374D01*
X-34738Y128971D02*
X-32838Y130871D01*
X-34538Y100871D02*
X-17971D01*
X-29914Y130871D02*
X-17971D01*
X112000Y218961D02*
X123962D01*
X125823Y220822D01*
Y225850D01*
X74740Y157295D02*
X75740Y152000D01*
X42462Y153440D02*
X47162Y148740D01*
X53000D01*
X178362Y229495D02*
X183000Y234134D01*
X112000Y259224D02*
Y265841D01*
X102276Y246000D02*
Y249500D01*
X207829Y210563D02*
X220000D01*
X105939Y271902D02*
X112000Y265841D01*
X22000Y271902D02*
X105939D01*
X250000Y-10000D02*
Y11000D01*
X237315Y47995D02*
Y48000D01*
X70000Y-10000D02*
Y9395D01*
X35000Y-10000D02*
X70000D01*
X52000Y260295D02*
Y265841D01*
X125823Y225850D02*
X138000D01*
X41000Y241740D02*
Y254841D01*
X122362Y225850D02*
X125823D01*
X120562Y227650D02*
X122362Y225850D01*
X120562Y227650D02*
Y237895D01*
X116197Y242260D02*
X120562Y237895D01*
X111724Y242260D02*
X116197D01*
X106685Y178270D02*
Y182118D01*
Y178270D02*
X109260Y175695D01*
Y172000D02*
Y175695D01*
X99500Y131934D02*
Y136453D01*
X98362Y130795D02*
X99500Y131934D01*
X90362Y130795D02*
X98362D01*
X89500Y131657D02*
X90362Y130795D01*
X89500Y131657D02*
Y136453D01*
X84500D02*
X89500D01*
X109260Y161095D02*
Y172000D01*
X112960Y157395D02*
X120562D01*
X123962Y160795D01*
Y165795D01*
X126851Y168685D01*
X131398D01*
X131962Y184295D02*
X134262D01*
X129862Y186395D02*
X131962Y184295D01*
X129862Y186395D02*
Y190700D01*
X131162Y192000D01*
X133276D01*
X143000Y160998D02*
Y169260D01*
X141398Y159395D02*
X143000Y160998D01*
X141398Y152547D02*
Y159395D01*
X110069Y137260D02*
X120000D01*
X99500Y136453D02*
X109262D01*
X102231Y150695D02*
Y160295D01*
Y150695D02*
X103231Y149695D01*
X123262D01*
X127862Y145095D01*
X138198D01*
X141398Y148295D01*
Y152547D01*
X136398Y133453D02*
X141398D01*
X131398D02*
X136398D01*
X141398Y127859D02*
Y133453D01*
Y127859D02*
X143162Y126095D01*
X162362D01*
X165740Y129474D01*
Y142000D01*
X202000Y143000D02*
X202022Y143022D01*
Y148881D01*
X221000Y169402D02*
Y174638D01*
X248000Y162740D02*
X248062Y162802D01*
X248000Y167748D02*
X248062D01*
X226685Y48000D02*
Y52295D01*
X214405Y105595D02*
X226562D01*
X205000Y115000D02*
X214405Y105595D01*
X36600Y196895D02*
X56817D01*
X60162Y193551D01*
X56744Y246039D02*
X67126D01*
X55000Y244295D02*
X56744Y246039D01*
X55000Y240740D02*
Y244295D01*
X75740Y148295D02*
Y152000D01*
X99500Y151495D02*
Y155547D01*
X103055Y144740D02*
X120000D01*
X99500Y148295D02*
X103055Y144740D01*
X53000Y148740D02*
Y153534D01*
X56762Y157295D01*
X74740D01*
X75740Y156295D01*
Y152000D02*
Y156295D01*
X165740Y150563D02*
X169437D01*
X205000Y115000D01*
X120000Y144740D02*
X122457D01*
X146398Y146281D02*
Y152547D01*
X165740Y150563D02*
Y153617D01*
X163962Y155395D02*
X165740Y153617D01*
X146398Y152547D02*
Y155395D01*
X192624Y239260D02*
X196260Y242895D01*
Y246984D01*
X168740Y217000D02*
Y220295D01*
X167340Y221695D02*
X168740Y220295D01*
X152062Y221695D02*
X167340D01*
X144662Y214295D02*
X152062Y221695D01*
X183000Y234134D02*
Y239260D01*
X163000Y229495D02*
X178362D01*
X168740Y217000D02*
X189260D01*
X138657Y277000D02*
X145962Y269695D01*
X126740Y277000D02*
X138657D01*
X243724Y178378D02*
X248000D01*
X243362Y178740D02*
X243724Y178378D01*
X239232Y178740D02*
X243362D01*
X239232Y175000D02*
Y178740D01*
X181562Y32395D02*
X185762Y28195D01*
X213995Y147295D02*
Y156361D01*
X220000Y223437D02*
Y232220D01*
D44*
X283000Y267717D02*
D03*
X268000D02*
D03*
X52000Y265841D02*
D03*
X37000D02*
D03*
X22000D02*
D03*
X112000D02*
D03*
X97000D02*
D03*
X82000D02*
D03*
X67000D02*
D03*
X127000D02*
D03*
X-29345Y93871D02*
D03*
Y108871D02*
D03*
Y123871D02*
D03*
Y138871D02*
D03*
Y168871D02*
D03*
Y198871D02*
D03*
Y183871D02*
D03*
Y153871D02*
D03*
D45*
X260000Y204000D02*
D03*
X240000D02*
D03*
X260000Y244000D02*
D03*
X100000Y16000D02*
D03*
X110000D02*
D03*
X120000D02*
D03*
X130000D02*
D03*
X140000D02*
D03*
X150000D02*
D03*
X160000D02*
D03*
X170000D02*
D03*
X180000D02*
D03*
X190000D02*
D03*
X200000D02*
D03*
X210000D02*
D03*
X100000Y96000D02*
D03*
X110000D02*
D03*
X120000D02*
D03*
X130000D02*
D03*
X140000D02*
D03*
X150000D02*
D03*
X160000D02*
D03*
X170000D02*
D03*
X180000D02*
D03*
X190000D02*
D03*
X200000D02*
D03*
X210000D02*
D03*
X220000D02*
D03*
X230000D02*
D03*
X240000D02*
D03*
X80000Y-10000D02*
D03*
X90000D02*
D03*
X100000D02*
D03*
X110000D02*
D03*
X120000D02*
D03*
X130000D02*
D03*
X140000D02*
D03*
X150000D02*
D03*
X160000D02*
D03*
X170000D02*
D03*
X180000D02*
D03*
X190000D02*
D03*
X200000D02*
D03*
X210000D02*
D03*
X220000D02*
D03*
X230000D02*
D03*
X240000D02*
D03*
X250000D02*
D03*
X70000Y80000D02*
D03*
X80000D02*
D03*
X90000D02*
D03*
X100000D02*
D03*
X110000D02*
D03*
X120000D02*
D03*
X130000D02*
D03*
X140000D02*
D03*
X150000D02*
D03*
X160000D02*
D03*
X170000D02*
D03*
X180000D02*
D03*
X190000D02*
D03*
X200000D02*
D03*
X210000D02*
D03*
X220000D02*
D03*
X230000D02*
D03*
X240000D02*
D03*
X250000D02*
D03*
D46*
X240000Y244000D02*
D03*
X250000Y96000D02*
D03*
X70000Y-10000D02*
D03*
D47*
X35000D02*
D03*
D48*
Y0D02*
D03*
Y10000D02*
D03*
Y20000D02*
D03*
Y30000D02*
D03*
Y40000D02*
D03*
X195000Y115000D02*
D03*
X205000D02*
D03*
X215000D02*
D03*
X75000Y185000D02*
D03*
X65000D02*
D03*
X55000D02*
D03*
X45000D02*
D03*
X35000D02*
D03*
X0Y245000D02*
D03*
X285000Y20000D02*
D03*
X0D02*
D03*
D49*
X185000Y115000D02*
D03*
X25000Y185000D02*
D03*
D50*
X245000Y260247D02*
D03*
X225315D02*
D03*
D51*
X116102Y162740D02*
D03*
X265000D02*
D03*
D52*
X116102Y194630D02*
D03*
D53*
X55369Y112190D02*
D03*
X27462Y116197D02*
D03*
X201497Y169188D02*
D03*
X155086Y234586D02*
D03*
X15000Y189895D02*
D03*
X240190Y189000D02*
D03*
X190862Y249472D02*
D03*
X230862Y132176D02*
D03*
X245000D02*
D03*
X110000Y137000D02*
D03*
Y160000D02*
D03*
X27231Y168926D02*
D03*
X17462Y134611D02*
D03*
X34362D02*
D03*
X2000Y120000D02*
D03*
X37423D02*
D03*
X241000Y136000D02*
D03*
X118000Y224295D02*
D03*
X214882Y5004D02*
D03*
X205000Y8495D02*
D03*
X219924Y15629D02*
D03*
X105062Y-3205D02*
D03*
X205000Y48000D02*
D03*
X269362Y54768D02*
D03*
X250000D02*
D03*
X155086Y216000D02*
D03*
X156362Y206000D02*
D03*
X199000Y267425D02*
D03*
X117315Y202695D02*
D03*
X151000Y247890D02*
D03*
X178000Y259595D02*
D03*
X187962D02*
D03*
X222702Y202577D02*
D03*
X310279Y30195D02*
D03*
X187000Y42524D02*
D03*
X196362Y257595D02*
D03*
X173086Y265520D02*
D03*
X17462Y155678D02*
D03*
X170662Y62395D02*
D03*
X155062Y54395D02*
D03*
X138262Y161595D02*
D03*
X217162Y198495D02*
D03*
X135562Y113395D02*
D03*
X145762Y233295D02*
D03*
X70000Y9395D02*
D03*
X-34538Y100871D02*
D03*
X58262Y149095D02*
D03*
X226562Y105595D02*
D03*
X22962Y77000D02*
D03*
X82662Y123495D02*
D03*
X63362Y170295D02*
D03*
X195062Y89595D02*
D03*
X38962Y66995D02*
D03*
X29257Y58395D02*
D03*
X39862Y224295D02*
D03*
X21000D02*
D03*
X168000Y32559D02*
D03*
X248000Y162740D02*
D03*
X221000Y169402D02*
D03*
X202000Y136000D02*
D03*
Y143000D02*
D03*
X223000Y189000D02*
D03*
X256000Y136000D02*
D03*
D54*
X230763Y114180D02*
D03*
Y124810D02*
D03*
X245000Y114180D02*
D03*
Y124810D02*
D03*
D55*
X102276Y246000D02*
D03*
Y242260D02*
D03*
Y238520D02*
D03*
X111724D02*
D03*
Y242260D02*
D03*
Y246000D02*
D03*
X76244Y213142D02*
D03*
Y209402D02*
D03*
Y205661D02*
D03*
X66795D02*
D03*
Y213142D02*
D03*
D56*
X3740Y214606D02*
D03*
D57*
X7480Y214606D02*
D03*
X11221D02*
D03*
Y206142D02*
D03*
X7480D02*
D03*
X3740D02*
D03*
D58*
X196260Y237535D02*
D03*
X203740D02*
D03*
Y246984D02*
D03*
X200000D02*
D03*
X196260D02*
D03*
D59*
X159063Y234110D02*
D03*
Y247890D02*
D03*
X163000Y234110D02*
D03*
X166937D02*
D03*
X163000Y247890D02*
D03*
X166937D02*
D03*
D60*
X163000Y241000D02*
D03*
D61*
X-8719Y164611D02*
D03*
X-17971Y160871D02*
D03*
Y100871D02*
D03*
X-8719Y104611D02*
D03*
Y134611D02*
D03*
X-17971Y130871D02*
D03*
X-8719Y195111D02*
D03*
X-17971Y191371D02*
D03*
D62*
X-8719Y157131D02*
D03*
Y97131D02*
D03*
Y127131D02*
D03*
Y187631D02*
D03*
D63*
X133276Y188260D02*
D03*
Y192000D02*
D03*
Y195740D02*
D03*
X142725Y188260D02*
D03*
Y195740D02*
D03*
D64*
X281400Y230876D02*
D03*
X300600D02*
D03*
D65*
X7462Y163047D02*
D03*
X12462D02*
D03*
X17462D02*
D03*
X22462D02*
D03*
X27462D02*
D03*
X32462D02*
D03*
X37462D02*
D03*
X42462D02*
D03*
X7462Y126433D02*
D03*
X12462D02*
D03*
X17462D02*
D03*
X22462D02*
D03*
X27462D02*
D03*
X32462D02*
D03*
X37462D02*
D03*
X42462D02*
D03*
D66*
X75394Y238480D02*
D03*
X75360Y246060D02*
D03*
X67126Y246039D02*
D03*
Y238480D02*
D03*
D67*
X230768Y171260D02*
D03*
D68*
X230768Y175000D02*
D03*
Y178740D02*
D03*
X239232D02*
D03*
Y175000D02*
D03*
Y171260D02*
D03*
D69*
X16000Y242315D02*
D03*
Y231685D02*
D03*
X220000Y232220D02*
D03*
Y242850D02*
D03*
X248000Y178378D02*
D03*
Y167748D02*
D03*
X131398Y179315D02*
D03*
Y168685D02*
D03*
X112000Y229591D02*
D03*
Y218961D02*
D03*
D70*
X84500Y155547D02*
D03*
X89500D02*
D03*
X94500D02*
D03*
X99500D02*
D03*
X84500Y136453D02*
D03*
X89500D02*
D03*
X94500D02*
D03*
X99500D02*
D03*
X131398Y152547D02*
D03*
X136398D02*
D03*
X141398D02*
D03*
X146398D02*
D03*
X131398Y133453D02*
D03*
X136398D02*
D03*
X141398D02*
D03*
X146398D02*
D03*
D71*
X230137Y147295D02*
D03*
X213995D02*
D03*
D72*
X241000Y144563D02*
D03*
Y157437D02*
D03*
X220000Y223437D02*
D03*
Y210563D02*
D03*
D73*
X176129Y33000D02*
D03*
X189003D02*
D03*
D74*
X226685Y48000D02*
D03*
X237315D02*
D03*
X117315Y182118D02*
D03*
X106685D02*
D03*
D75*
X220000Y175000D02*
X230768D01*
X-1879Y221670D02*
X5769D01*
X-4038Y219511D02*
X-1879Y221670D01*
X7480Y200000D02*
X8930Y198551D01*
X7480Y200000D02*
Y206142D01*
Y214606D02*
Y219959D01*
X5769Y221670D02*
X7480Y219959D01*
D76*
X199823Y247161D02*
Y250773D01*
X198861Y251736D02*
X199823Y250773D01*
X193880Y251736D02*
X198861D01*
X191240Y249095D02*
X193880Y251736D01*
X163000Y229495D02*
Y234110D01*
X223000Y189000D02*
X240190D01*
X190862Y249472D02*
X190863D01*
X191240Y249095D01*
X199823Y247161D02*
X200000Y246984D01*
X183000Y246740D02*
X188130D01*
X189729Y248340D01*
X189991D01*
X190862Y249211D01*
Y249472D01*
X181492Y253305D02*
X183000Y251797D01*
Y246740D02*
Y251797D01*
X164569Y253305D02*
X181492D01*
X163000Y251736D02*
X164569Y253305D01*
D77*
X-17971Y130871D02*
X7440D01*
X42462Y153440D02*
Y163047D01*
X7462Y126433D02*
Y130871D01*
M02*
