G04*
G04 #@! TF.GenerationSoftware,Altium Limited,Altium Designer,19.1.8 (144)*
G04*
G04 Layer_Color=32768*
%FSLAX25Y25*%
%MOIN*%
G70*
G01*
G75*
%ADD14C,0.00500*%
%ADD101C,0.00500*%
D14*
X-6440Y122D02*
G03*
X0Y-6318I6440J0D01*
G01*
Y6562D02*
G03*
X-6440Y122I0J-6440D01*
G01*
X6440D02*
G03*
X0Y6562I-6440J0D01*
G01*
Y-6318D02*
G03*
X6440Y122I0J6440D01*
G01*
X303150Y261277D02*
G03*
X309590Y267717I0J6440D01*
G01*
D02*
G03*
X303150Y274156I-6440J0D01*
G01*
D02*
G03*
X296710Y267717I0J-6440D01*
G01*
D02*
G03*
X303150Y261277I6440J0D01*
G01*
X303149Y6441D02*
G03*
X296709Y1I0J-6440D01*
G01*
X309589D02*
G03*
X303149Y6441I-6440J0D01*
G01*
Y-6439D02*
G03*
X309589Y1I0J6440D01*
G01*
X296709D02*
G03*
X303149Y-6439I6440J0D01*
G01*
X-1Y261278D02*
G03*
X6439Y267718I0J6440D01*
G01*
D02*
G03*
X-1Y274158I-6440J0D01*
G01*
D02*
G03*
X-6441Y267718I0J-6440D01*
G01*
D02*
G03*
X-1Y261278I6440J0D01*
G01*
X-12035Y15790D02*
G03*
X-46475Y54478I-38950J0D01*
G01*
X-12035Y-14615D02*
G03*
X-8909Y-17742I3127J0D01*
G01*
X312057D02*
G03*
X315183Y-14615I0J3127D01*
G01*
Y15593D02*
G03*
X315183Y15594I-27J0D01*
G01*
X315183Y57082D02*
G03*
X315659Y57583I-26J501D01*
G01*
D02*
G03*
X315158Y58084I-501J0D01*
G01*
X315157Y209636D02*
G03*
X315658Y210138I0J501D01*
G01*
Y282334D02*
G03*
X315143Y282836I-501J0D01*
G01*
D02*
G03*
X312057Y285461I-3086J-501D01*
G01*
X-8909D02*
G03*
X-12035Y282334I0J-3127D01*
G01*
X-46475Y213242D02*
G03*
X-12035Y251930I-4510J38688D01*
G01*
X-46475Y213242D02*
G03*
X-49240Y210136I362J-3105D01*
G01*
Y57583D02*
G03*
X-46475Y54478I3127J0D01*
G01*
X280502Y58084D02*
Y209636D01*
X280502D01*
X315157D01*
X-12035Y-14615D02*
Y15790D01*
X-8908Y-17742D02*
X312057D01*
X315183Y-14615D02*
Y15593D01*
Y15594D02*
Y57082D01*
X280502Y58084D02*
X315158D01*
X315658Y210138D02*
Y282334D01*
X-8908Y285461D02*
X312057D01*
X-12035Y251930D02*
Y282334D01*
X-49240Y57583D02*
Y210136D01*
D101*
X-46475Y213242D02*
D03*
M02*
